HIERARCHY
ROOT Hips
{
	OFFSET 0.000000 0.000000 0.000000
	CHANNELS 6 Xposition Yposition Zposition Zrotation Yrotation Xrotation 
	JOINT LeftUpLeg_virtual
	{
		OFFSET 0.000000 0.000000 0.000000
		CHANNELS 3 Zrotation Yrotation Xrotation
		JOINT LeftUpLeg
		{
			OFFSET 8.479694 -4.795517 -0.379053
			CHANNELS 3 Zrotation Yrotation Xrotation
			JOINT LeftLeg
			{
				OFFSET 0.485052 -32.551468 0.112863
				CHANNELS 3 Zrotation Yrotation Xrotation
				JOINT LeftFoot
				{
					OFFSET 0.438033 -32.635670 -3.012641
					CHANNELS 3 Zrotation Yrotation Xrotation
					JOINT LeftToeBase
					{
						OFFSET 0.970169 -13.225353 11.864223
						CHANNELS 3 Zrotation Yrotation Xrotation
						End Site
						{
							OFFSET 0.000000 0.000000 0.000000
						}
					}
				}
			}
		}
	}
	JOINT RightUpLeg_virtual
	{
		OFFSET 0.000000 0.000000 0.000000
		CHANNELS 3 Zrotation Yrotation Xrotation
		JOINT RightUpLeg
		{
			OFFSET -8.479694 -4.795517 -0.379053
			CHANNELS 3 Zrotation Yrotation Xrotation
			JOINT RightLeg
			{
				OFFSET -0.484100 -32.551483 0.112903
				CHANNELS 3 Zrotation Yrotation Xrotation
				JOINT RightFoot
				{
					OFFSET -0.438985 -32.635651 -3.012681
					CHANNELS 3 Zrotation Yrotation Xrotation
					JOINT RightToeBase
					{
						OFFSET -0.970169 -13.225354 11.864223
						CHANNELS 3 Zrotation Yrotation Xrotation
						End Site
						{
							OFFSET 0.000000 0.000000 0.000000
						}
					}
				}
			}
		}
	}
	JOINT Spine_virtual
	{
		OFFSET 0.000000 0.000000 0.000000
		CHANNELS 3 Zrotation Yrotation Xrotation
		JOINT Spine
		{
			OFFSET 0.000000 7.722015 1.166203
			CHANNELS 3 Zrotation Yrotation Xrotation
			JOINT Spine1
			{
				OFFSET 0.000000 12.024086 0.248766
				CHANNELS 3 Zrotation Yrotation Xrotation
				JOINT Spine2
				{
					OFFSET -0.000000 11.503036 -0.491240
					CHANNELS 3 Zrotation Yrotation Xrotation
					JOINT Neck_virtual
					{
						OFFSET 0.000000 0.000000 0.000000
						CHANNELS 3 Zrotation Yrotation Xrotation
						JOINT Neck
						{
							OFFSET 0.000000 18.430687 -3.123054
							CHANNELS 3 Zrotation Yrotation Xrotation
							JOINT Head
							{
								OFFSET -0.000000 9.051071 1.034021
								CHANNELS 3 Zrotation Yrotation Xrotation
								End Site
								{
									OFFSET 0.000000 0.000000 0.000000
								}
							}
						}
					}
					JOINT LeftShoulder_virtual
					{
						OFFSET 0.000000 0.000000 0.000000
						CHANNELS 3 Zrotation Yrotation Xrotation
						JOINT LeftShoulder
						{
							OFFSET 6.197824 13.665230 -4.064723
							CHANNELS 3 Zrotation Yrotation Xrotation
							JOINT LeftArm
							{
								OFFSET 7.778132 -0.187073 -1.709282
								CHANNELS 3 Zrotation Yrotation Xrotation
								JOINT LeftForeArm
								{
									OFFSET 21.954697 0.000000 -2.041093
									CHANNELS 3 Zrotation Yrotation Xrotation
									JOINT LeftHand
									{
										OFFSET 22.992908 0.000000 -0.870901
										CHANNELS 3 Zrotation Yrotation Xrotation
										End Site
										{
											OFFSET 0.000000 0.000000 0.000000
										}
									}
								}
							}
						}
					}
					JOINT RightShoulder_virtual
					{
						OFFSET 0.000000 0.000000 0.000000
						CHANNELS 3 Zrotation Yrotation Xrotation
						JOINT RightShoulder
						{
							OFFSET -6.197824 13.665230 -4.064723
							CHANNELS 3 Zrotation Yrotation Xrotation
							JOINT RightArm
							{
								OFFSET -7.778132 -0.187073 -1.709282
								CHANNELS 3 Zrotation Yrotation Xrotation
								JOINT RightForeArm
								{
									OFFSET -21.954697 0.000000 -2.041093
									CHANNELS 3 Zrotation Yrotation Xrotation
									JOINT RightHand
									{
										OFFSET -22.992908 0.000000 -0.870901
										CHANNELS 3 Zrotation Yrotation Xrotation
										End Site
										{
											OFFSET 0.000000 0.000000 0.000000
										}
									}
								}
							}
						}
					}
				}
			}
		}
	}
}
MOTION
Frames: 10
Frame Time: 0.033333
-9.891694 81.221634 16.216867 -179.978148 -2.770055 179.953396 -5.201966 -0.621095 12.989892 -1.653117 -0.291168 -23.905539 5.740824 4.078027 29.454508 4.894079 -9.137417 -12.282995 0.000000 0.000000 0.000000 -1.699542 -1.543362 13.153398 -0.304292 -0.082213 -24.072577 -1.215392 3.727455 28.760957 8.188429 2.699241 -11.401918 0.000000 0.000000 0.000000 0.963531 1.654163 2.127900 -3.073773 1.210925 -2.189645 -0.083654 -2.776263 5.308859 -0.022806 0.005382 0.022818 0.096666 -1.985948 4.935060 2.176822 0.708111 2.518187 0.000000 0.000000 0.000000 1.771147 -1.225762 1.542268 -0.559660 5.331270 -5.097793 0.543975 -13.316266 -52.234732 -1.284915 -31.514930 -1.328314 0.000000 0.000000 0.000000 -2.650076 0.058713 0.759195 20.866645 -6.895087 -9.995856 0.871974 4.260401 -73.295320 -2.658578 23.067374 4.091788 0.000000 0.000000 0.000000 
-9.953484 81.216515 16.133942 -179.953806 -2.726595 179.974651 -5.278884 -0.713595 13.003569 -1.749791 -0.020586 -23.855844 5.626341 4.015442 29.470487 4.754296 -9.398742 -12.681132 0.000000 0.000000 0.000000 -1.698927 -1.576468 13.147293 -0.278865 -0.188300 -24.075143 -1.251880 3.654583 28.781570 8.109097 2.589138 -11.380697 0.000000 0.000000 0.000000 0.973865 1.644402 2.094856 -3.050479 1.185829 -2.239515 -0.070420 -2.791258 5.287999 -0.009317 -0.002167 -0.008426 0.086052 -1.966351 5.013169 2.177806 0.727252 2.553834 0.000000 0.000000 0.000000 1.769279 -1.214192 1.591516 -0.525733 5.403398 -5.061685 0.412568 -13.281260 -52.131603 -1.182103 -31.594686 -1.425186 0.000000 0.000000 0.000000 -2.673662 0.048718 0.847705 20.863921 -6.924719 -10.115286 0.905842 4.069539 -73.453296 -2.600648 23.212159 4.139375 0.000000 0.000000 0.000000 
-10.030315 81.203499 16.012390 -179.966004 -2.689791 -179.998748 -5.316750 -0.724201 13.018783 -1.810563 0.038563 -23.829287 5.637369 4.041164 29.555670 4.778273 -9.411103 -12.787811 0.000000 0.000000 0.000000 -1.751120 -1.506472 13.144981 -0.301552 -0.258263 -23.991999 -1.248207 3.668284 28.792109 8.164057 2.604466 -11.456515 0.000000 0.000000 0.000000 0.928549 1.666542 2.025850 -3.050951 1.165179 -2.311994 -0.072949 -2.785866 5.287238 -0.016967 0.007187 0.006290 0.086581 -1.959672 5.046558 2.180678 0.746349 2.610993 0.000000 0.000000 0.000000 1.778889 -1.224353 1.614973 -0.634353 5.442196 -5.020486 0.346155 -13.194253 -52.093494 -1.148292 -31.656284 -1.439784 0.000000 0.000000 0.000000 -2.655191 0.053887 0.859077 20.862302 -7.096138 -9.934940 1.043483 3.830161 -73.805180 -2.659083 23.550291 4.132466 0.000000 0.000000 0.000000 
-10.116651 81.189232 15.869971 -179.963532 -2.684608 179.992410 -5.353537 -0.683366 13.055778 -1.835003 0.077032 -23.774138 5.666245 4.042269 29.666903 4.819588 -9.397073 -12.883124 0.000000 0.000000 0.000000 -1.783707 -1.479958 13.180628 -0.335700 -0.248034 -23.860335 -1.245767 3.666316 28.805179 8.221167 2.593808 -11.521529 0.000000 0.000000 0.000000 0.905791 1.711373 1.954194 -3.045491 1.133555 -2.383785 -0.069278 -2.793574 5.295657 -0.001818 0.003305 -0.035572 0.079832 -1.946271 5.122642 2.181735 0.764747 2.753305 0.000000 0.000000 0.000000 1.801183 -1.248942 1.637573 -0.749912 5.506083 -5.150258 0.291341 -13.105589 -52.271711 -1.302662 -31.733318 -1.354172 0.000000 0.000000 0.000000 -2.676264 0.040219 0.884931 20.867836 -7.158058 -10.149952 1.194535 3.399673 -73.886090 -2.553990 23.887429 4.272096 0.000000 0.000000 0.000000 
-10.201621 81.168251 15.721875 -179.902443 -2.696124 -179.998858 -5.343319 -0.659284 13.042078 -1.867640 0.266383 -23.727445 5.650493 3.861537 29.714496 4.837559 -9.357905 -13.032599 0.000000 0.000000 0.000000 -1.765893 -1.415493 13.173411 -0.382953 -0.254771 -23.757425 -1.275133 3.639751 28.805035 8.268085 2.551529 -11.675990 0.000000 0.000000 0.000000 0.928417 1.759611 1.854287 -3.004930 1.095331 -2.474597 -0.050622 -2.799611 5.306867 -0.006782 0.008873 0.109176 0.065884 -2.031783 5.062815 2.212769 0.793382 2.905412 0.000000 0.000000 0.000000 1.721918 -1.232324 1.606290 -0.822769 5.572984 -5.079121 0.238441 -13.193648 -52.199208 -1.233735 -31.755069 -1.386645 0.000000 0.000000 0.000000 -2.717736 0.018884 0.807277 21.006307 -7.315752 -10.048048 1.203453 3.198732 -74.031901 -2.612454 24.103792 4.318245 0.000000 0.000000 0.000000 
-10.274327 81.150597 15.576664 -179.972302 -2.684913 -179.958655 -5.406254 -0.580632 13.049508 -1.897276 0.167060 -23.689215 5.622213 3.988131 29.837097 4.821192 -9.379824 -13.084502 0.000000 0.000000 0.000000 -1.830286 -1.311036 13.176754 -0.383359 -0.317060 -23.695692 -1.270240 3.706022 28.822244 8.358108 2.549980 -11.749787 0.000000 0.000000 0.000000 0.854874 1.814758 1.754143 -3.068896 1.054598 -2.626187 -0.084387 -2.799109 5.319728 -0.038102 0.014700 0.006693 0.113227 -1.939256 5.244246 2.241724 0.800818 3.086016 0.000000 0.000000 0.000000 1.791295 -1.250410 1.741615 -0.930704 5.590279 -5.126827 0.225560 -13.130478 -52.212418 -1.226826 -31.796921 -1.436855 0.000000 0.000000 0.000000 -2.676672 0.027816 0.930995 21.081864 -7.357878 -10.133840 1.211264 2.903061 -74.134197 -2.544207 24.227910 4.470022 0.000000 0.000000 0.000000 
-10.340921 81.130463 15.432703 -179.982356 -2.630517 -179.985689 -5.410136 -0.500138 13.108556 -1.927093 0.272006 -23.640058 5.633968 3.984436 29.881576 4.793933 -9.396179 -13.223057 0.000000 0.000000 0.000000 -1.859090 -1.138223 13.228591 -0.390960 -0.358823 -23.588330 -1.300014 3.572333 28.869557 8.448503 2.494815 -11.884884 0.000000 0.000000 0.000000 0.839238 1.855758 1.654722 -3.090510 0.997448 -2.734122 -0.080738 -2.831909 5.359495 -0.031991 -0.002100 0.017993 0.126594 -1.913486 5.229180 2.237438 0.843946 3.271642 0.000000 0.000000 0.000000 1.782129 -1.127144 1.752167 -1.014474 5.586405 -5.146283 0.277862 -13.143302 -52.232946 -1.282013 -31.844073 -1.386430 0.000000 0.000000 0.000000 -2.641867 0.022181 0.952707 21.114708 -7.413139 -10.133655 1.233705 2.916955 -74.182685 -2.578213 24.260128 4.543794 0.000000 0.000000 0.000000 
-10.390965 81.110771 15.298462 -179.989555 -2.692230 -179.982533 -5.428197 -0.495880 13.128251 -1.951077 0.327910 -23.560294 5.642416 3.956810 29.935561 4.750925 -9.395155 -13.346727 0.000000 0.000000 0.000000 -1.889234 -1.123470 13.265454 -0.385462 -0.393601 -23.532519 -1.316591 3.597239 28.966781 8.496116 2.441097 -11.980590 0.000000 0.000000 0.000000 0.813950 1.905735 1.565664 -3.122564 0.960673 -2.854640 -0.069915 -2.849912 5.386123 -0.023190 -0.006819 0.030280 0.107553 -2.035105 5.256135 2.227702 0.898075 3.424739 0.000000 0.000000 0.000000 1.779040 -1.298469 1.732410 -1.096790 5.702690 -5.171283 0.299248 -13.144582 -52.208474 -1.344372 -31.885461 -1.300629 0.000000 0.000000 0.000000 -2.661634 -0.035019 0.964156 21.172509 -7.449231 -10.388257 1.221245 2.890365 -74.062869 -2.482022 24.281505 4.600444 0.000000 0.000000 0.000000 
-10.430777 81.095505 15.179454 -179.884780 -2.616916 -179.986618 -5.405055 -0.378977 13.127380 -1.922577 0.334968 -23.493865 5.646163 3.932893 29.983373 4.712685 -9.370262 -13.473368 0.000000 0.000000 0.000000 -1.852157 -1.055909 13.289550 -0.392580 -0.352614 -23.471479 -1.333053 3.622114 29.051311 8.510638 2.363476 -12.046853 0.000000 0.000000 0.000000 0.840962 1.942468 1.495236 -3.127838 0.926893 -2.987437 -0.022229 -2.875992 5.388197 0.022654 -0.002448 -0.004850 0.050788 -2.157483 5.321843 2.183901 0.976328 3.556784 0.000000 0.000000 0.000000 1.735198 -1.312620 1.744706 -1.221834 5.778285 -5.223183 0.393854 -13.059648 -52.205851 -1.372131 -31.962451 -1.237629 0.000000 0.000000 0.000000 -2.708772 -0.051582 1.047179 21.209829 -7.477827 -10.333598 1.235521 2.937259 -74.097854 -2.541253 24.359747 4.785626 0.000000 0.000000 0.000000 
-10.457176 81.081619 15.081457 -179.919983 -2.342478 -179.971400 -5.458197 -0.284974 13.079936 -2.021626 0.638036 -23.395326 5.693358 3.854276 29.963374 4.663133 -9.379270 -13.568760 0.000000 0.000000 0.000000 -1.889581 -0.829739 13.245589 -0.404798 -0.299688 -23.476146 -1.341493 3.643578 29.157487 8.590202 2.371590 -12.136710 0.000000 0.000000 0.000000 0.791200 2.031572 1.431489 -3.185422 0.967293 -3.087591 -0.034611 -2.834096 5.409100 -0.018689 0.033130 0.014066 0.110796 -2.070024 5.348709 2.178387 1.019411 3.643690 0.000000 0.000000 0.000000 1.783623 -1.273832 1.789951 -1.279315 5.862380 -5.245227 0.422525 -13.124960 -52.272192 -1.395572 -31.998460 -1.218964 0.000000 0.000000 0.000000 -2.656954 0.010820 1.044224 21.376769 -7.410409 -10.286194 1.107529 2.845646 -74.143179 -2.491085 24.397709 4.850509 0.000000 0.000000 0.000000 
